<svg xmlns="http://www.w3.org/2000/svg" viewBox="0 0 1180 500" font-family="Inter, Arial, sans-serif" role="img" aria-labelledby="t d">
<title id="t">The friction continuum in legal work</title><desc id="d">A spectrum from high AI potential on the left (summarizing documents, extracting facts) through moderate (drafting standard correspondence) to low AI potential on the right (negotiating settlements).</desc>
<rect width="1180" height="500" fill="#ffffff"/>
<text x="60" y="46" font-size="24" font-weight="700" fill="#16212b">The friction continuum in legal work</text>
<text x="60" y="74" font-size="14.5" fill="#5a6672">Where a task sits on the spectrum tells you how much AI can help.</text>
<rect x="90.00" y="262" width="5.70" height="46" fill="#1d9e75"/>
<rect x="95.00" y="262" width="5.70" height="46" fill="#1f9e74"/>
<rect x="100.00" y="262" width="5.70" height="46" fill="#219e73"/>
<rect x="105.00" y="262" width="5.70" height="46" fill="#239e73"/>
<rect x="110.00" y="262" width="5.70" height="46" fill="#259e72"/>
<rect x="115.00" y="262" width="5.70" height="46" fill="#289e71"/>
<rect x="120.00" y="262" width="5.70" height="46" fill="#2a9e70"/>
<rect x="125.00" y="262" width="5.70" height="46" fill="#2c9e70"/>
<rect x="130.00" y="262" width="5.70" height="46" fill="#2e9e6f"/>
<rect x="135.00" y="262" width="5.70" height="46" fill="#309e6e"/>
<rect x="140.00" y="262" width="5.70" height="46" fill="#329e6d"/>
<rect x="145.00" y="262" width="5.70" height="46" fill="#349e6c"/>
<rect x="150.00" y="262" width="5.70" height="46" fill="#369e6c"/>
<rect x="155.00" y="262" width="5.70" height="46" fill="#389e6b"/>
<rect x="160.00" y="262" width="5.70" height="46" fill="#3b9e6a"/>
<rect x="165.00" y="262" width="5.70" height="46" fill="#3d9e69"/>
<rect x="170.00" y="262" width="5.70" height="46" fill="#3f9e68"/>
<rect x="175.00" y="262" width="5.70" height="46" fill="#419e68"/>
<rect x="180.00" y="262" width="5.70" height="46" fill="#439e67"/>
<rect x="185.00" y="262" width="5.70" height="46" fill="#459e66"/>
<rect x="190.00" y="262" width="5.70" height="46" fill="#479e65"/>
<rect x="195.00" y="262" width="5.70" height="46" fill="#499e65"/>
<rect x="200.00" y="262" width="5.70" height="46" fill="#4b9e64"/>
<rect x="205.00" y="262" width="5.70" height="46" fill="#4e9e63"/>
<rect x="210.00" y="262" width="5.70" height="46" fill="#509e62"/>
<rect x="215.00" y="262" width="5.70" height="46" fill="#529e61"/>
<rect x="220.00" y="262" width="5.70" height="46" fill="#549e61"/>
<rect x="225.00" y="262" width="5.70" height="46" fill="#569e60"/>
<rect x="230.00" y="262" width="5.70" height="46" fill="#589e5f"/>
<rect x="235.00" y="262" width="5.70" height="46" fill="#5a9e5e"/>
<rect x="240.00" y="262" width="5.70" height="46" fill="#5c9e5d"/>
<rect x="245.00" y="262" width="5.70" height="46" fill="#5e9e5d"/>
<rect x="250.00" y="262" width="5.70" height="46" fill="#619e5c"/>
<rect x="255.00" y="262" width="5.70" height="46" fill="#639e5b"/>
<rect x="260.00" y="262" width="5.70" height="46" fill="#659e5a"/>
<rect x="265.00" y="262" width="5.70" height="46" fill="#679e5a"/>
<rect x="270.00" y="262" width="5.70" height="46" fill="#699e59"/>
<rect x="275.00" y="262" width="5.70" height="46" fill="#6b9e58"/>
<rect x="280.00" y="262" width="5.70" height="46" fill="#6d9e57"/>
<rect x="285.00" y="262" width="5.70" height="46" fill="#6f9e56"/>
<rect x="290.00" y="262" width="5.70" height="46" fill="#719e56"/>
<rect x="295.00" y="262" width="5.70" height="46" fill="#749e55"/>
<rect x="300.00" y="262" width="5.70" height="46" fill="#769e54"/>
<rect x="305.00" y="262" width="5.70" height="46" fill="#789e53"/>
<rect x="310.00" y="262" width="5.70" height="46" fill="#7a9e53"/>
<rect x="315.00" y="262" width="5.70" height="46" fill="#7c9e52"/>
<rect x="320.00" y="262" width="5.70" height="46" fill="#7e9e51"/>
<rect x="325.00" y="262" width="5.70" height="46" fill="#809e50"/>
<rect x="330.00" y="262" width="5.70" height="46" fill="#829e4f"/>
<rect x="335.00" y="262" width="5.70" height="46" fill="#849e4f"/>
<rect x="340.00" y="262" width="5.70" height="46" fill="#879f4e"/>
<rect x="345.00" y="262" width="5.70" height="46" fill="#899f4d"/>
<rect x="350.00" y="262" width="5.70" height="46" fill="#8b9f4c"/>
<rect x="355.00" y="262" width="5.70" height="46" fill="#8d9f4b"/>
<rect x="360.00" y="262" width="5.70" height="46" fill="#8f9f4b"/>
<rect x="365.00" y="262" width="5.70" height="46" fill="#919f4a"/>
<rect x="370.00" y="262" width="5.70" height="46" fill="#939f49"/>
<rect x="375.00" y="262" width="5.70" height="46" fill="#959f48"/>
<rect x="380.00" y="262" width="5.70" height="46" fill="#979f48"/>
<rect x="385.00" y="262" width="5.70" height="46" fill="#9a9f47"/>
<rect x="390.00" y="262" width="5.70" height="46" fill="#9c9f46"/>
<rect x="395.00" y="262" width="5.70" height="46" fill="#9e9f45"/>
<rect x="400.00" y="262" width="5.70" height="46" fill="#a09f44"/>
<rect x="405.00" y="262" width="5.70" height="46" fill="#a29f44"/>
<rect x="410.00" y="262" width="5.70" height="46" fill="#a49f43"/>
<rect x="415.00" y="262" width="5.70" height="46" fill="#a69f42"/>
<rect x="420.00" y="262" width="5.70" height="46" fill="#a89f41"/>
<rect x="425.00" y="262" width="5.70" height="46" fill="#aa9f40"/>
<rect x="430.00" y="262" width="5.70" height="46" fill="#ad9f40"/>
<rect x="435.00" y="262" width="5.70" height="46" fill="#af9f3f"/>
<rect x="440.00" y="262" width="5.70" height="46" fill="#b19f3e"/>
<rect x="445.00" y="262" width="5.70" height="46" fill="#b39f3d"/>
<rect x="450.00" y="262" width="5.70" height="46" fill="#b59f3d"/>
<rect x="455.00" y="262" width="5.70" height="46" fill="#b79f3c"/>
<rect x="460.00" y="262" width="5.70" height="46" fill="#b99f3b"/>
<rect x="465.00" y="262" width="5.70" height="46" fill="#bb9f3a"/>
<rect x="470.00" y="262" width="5.70" height="46" fill="#bd9f39"/>
<rect x="475.00" y="262" width="5.70" height="46" fill="#c09f39"/>
<rect x="480.00" y="262" width="5.70" height="46" fill="#c29f38"/>
<rect x="485.00" y="262" width="5.70" height="46" fill="#c49f37"/>
<rect x="490.00" y="262" width="5.70" height="46" fill="#c69f36"/>
<rect x="495.00" y="262" width="5.70" height="46" fill="#c89f36"/>
<rect x="500.00" y="262" width="5.70" height="46" fill="#ca9f35"/>
<rect x="505.00" y="262" width="5.70" height="46" fill="#cc9f34"/>
<rect x="510.00" y="262" width="5.70" height="46" fill="#ce9f33"/>
<rect x="515.00" y="262" width="5.70" height="46" fill="#d09f32"/>
<rect x="520.00" y="262" width="5.70" height="46" fill="#d39f32"/>
<rect x="525.00" y="262" width="5.70" height="46" fill="#d59f31"/>
<rect x="530.00" y="262" width="5.70" height="46" fill="#d79f30"/>
<rect x="535.00" y="262" width="5.70" height="46" fill="#d99f2f"/>
<rect x="540.00" y="262" width="5.70" height="46" fill="#db9f2e"/>
<rect x="545.00" y="262" width="5.70" height="46" fill="#dd9f2e"/>
<rect x="550.00" y="262" width="5.70" height="46" fill="#df9f2d"/>
<rect x="555.00" y="262" width="5.70" height="46" fill="#e19f2c"/>
<rect x="560.00" y="262" width="5.70" height="46" fill="#e39f2b"/>
<rect x="565.00" y="262" width="5.70" height="46" fill="#e69f2b"/>
<rect x="570.00" y="262" width="5.70" height="46" fill="#e89f2a"/>
<rect x="575.00" y="262" width="5.70" height="46" fill="#ea9f29"/>
<rect x="580.00" y="262" width="5.70" height="46" fill="#ec9f28"/>
<rect x="585.00" y="262" width="5.70" height="46" fill="#ee9f27"/>
<rect x="590.00" y="262" width="5.70" height="46" fill="#ef9f27"/>
<rect x="595.00" y="262" width="5.70" height="46" fill="#ef9e28"/>
<rect x="600.00" y="262" width="5.70" height="46" fill="#ef9d28"/>
<rect x="605.00" y="262" width="5.70" height="46" fill="#ef9c28"/>
<rect x="610.00" y="262" width="5.70" height="46" fill="#ee9b29"/>
<rect x="615.00" y="262" width="5.70" height="46" fill="#ee9a29"/>
<rect x="620.00" y="262" width="5.70" height="46" fill="#ee9a29"/>
<rect x="625.00" y="262" width="5.70" height="46" fill="#ee992a"/>
<rect x="630.00" y="262" width="5.70" height="46" fill="#ee982a"/>
<rect x="635.00" y="262" width="5.70" height="46" fill="#ee972a"/>
<rect x="640.00" y="262" width="5.70" height="46" fill="#ee962b"/>
<rect x="645.00" y="262" width="5.70" height="46" fill="#ed952b"/>
<rect x="650.00" y="262" width="5.70" height="46" fill="#ed942b"/>
<rect x="655.00" y="262" width="5.70" height="46" fill="#ed942c"/>
<rect x="660.00" y="262" width="5.70" height="46" fill="#ed932c"/>
<rect x="665.00" y="262" width="5.70" height="46" fill="#ed922c"/>
<rect x="670.00" y="262" width="5.70" height="46" fill="#ed912d"/>
<rect x="675.00" y="262" width="5.70" height="46" fill="#ed902d"/>
<rect x="680.00" y="262" width="5.70" height="46" fill="#ed8f2e"/>
<rect x="685.00" y="262" width="5.70" height="46" fill="#ec8f2e"/>
<rect x="690.00" y="262" width="5.70" height="46" fill="#ec8e2e"/>
<rect x="695.00" y="262" width="5.70" height="46" fill="#ec8d2f"/>
<rect x="700.00" y="262" width="5.70" height="46" fill="#ec8c2f"/>
<rect x="705.00" y="262" width="5.70" height="46" fill="#ec8b2f"/>
<rect x="710.00" y="262" width="5.70" height="46" fill="#ec8a30"/>
<rect x="715.00" y="262" width="5.70" height="46" fill="#ec8930"/>
<rect x="720.00" y="262" width="5.70" height="46" fill="#ec8930"/>
<rect x="725.00" y="262" width="5.70" height="46" fill="#eb8831"/>
<rect x="730.00" y="262" width="5.70" height="46" fill="#eb8731"/>
<rect x="735.00" y="262" width="5.70" height="46" fill="#eb8631"/>
<rect x="740.00" y="262" width="5.70" height="46" fill="#eb8532"/>
<rect x="745.00" y="262" width="5.70" height="46" fill="#eb8432"/>
<rect x="750.00" y="262" width="5.70" height="46" fill="#eb8432"/>
<rect x="755.00" y="262" width="5.70" height="46" fill="#eb8333"/>
<rect x="760.00" y="262" width="5.70" height="46" fill="#ea8233"/>
<rect x="765.00" y="262" width="5.70" height="46" fill="#ea8133"/>
<rect x="770.00" y="262" width="5.70" height="46" fill="#ea8034"/>
<rect x="775.00" y="262" width="5.70" height="46" fill="#ea7f34"/>
<rect x="780.00" y="262" width="5.70" height="46" fill="#ea7e35"/>
<rect x="785.00" y="262" width="5.70" height="46" fill="#ea7e35"/>
<rect x="790.00" y="262" width="5.70" height="46" fill="#ea7d35"/>
<rect x="795.00" y="262" width="5.70" height="46" fill="#ea7c36"/>
<rect x="800.00" y="262" width="5.70" height="46" fill="#e97b36"/>
<rect x="805.00" y="262" width="5.70" height="46" fill="#e97a36"/>
<rect x="810.00" y="262" width="5.70" height="46" fill="#e97937"/>
<rect x="815.00" y="262" width="5.70" height="46" fill="#e97937"/>
<rect x="820.00" y="262" width="5.70" height="46" fill="#e97837"/>
<rect x="825.00" y="262" width="5.70" height="46" fill="#e97738"/>
<rect x="830.00" y="262" width="5.70" height="46" fill="#e97638"/>
<rect x="835.00" y="262" width="5.70" height="46" fill="#e97538"/>
<rect x="840.00" y="262" width="5.70" height="46" fill="#e87439"/>
<rect x="845.00" y="262" width="5.70" height="46" fill="#e87439"/>
<rect x="850.00" y="262" width="5.70" height="46" fill="#e87339"/>
<rect x="855.00" y="262" width="5.70" height="46" fill="#e8723a"/>
<rect x="860.00" y="262" width="5.70" height="46" fill="#e8713a"/>
<rect x="865.00" y="262" width="5.70" height="46" fill="#e8703b"/>
<rect x="870.00" y="262" width="5.70" height="46" fill="#e86f3b"/>
<rect x="875.00" y="262" width="5.70" height="46" fill="#e76e3b"/>
<rect x="880.00" y="262" width="5.70" height="46" fill="#e76e3c"/>
<rect x="885.00" y="262" width="5.70" height="46" fill="#e76d3c"/>
<rect x="890.00" y="262" width="5.70" height="46" fill="#e76c3c"/>
<rect x="895.00" y="262" width="5.70" height="46" fill="#e76b3d"/>
<rect x="900.00" y="262" width="5.70" height="46" fill="#e76a3d"/>
<rect x="905.00" y="262" width="5.70" height="46" fill="#e7693d"/>
<rect x="910.00" y="262" width="5.70" height="46" fill="#e7693e"/>
<rect x="915.00" y="262" width="5.70" height="46" fill="#e6683e"/>
<rect x="920.00" y="262" width="5.70" height="46" fill="#e6673e"/>
<rect x="925.00" y="262" width="5.70" height="46" fill="#e6663f"/>
<rect x="930.00" y="262" width="5.70" height="46" fill="#e6653f"/>
<rect x="935.00" y="262" width="5.70" height="46" fill="#e6643f"/>
<rect x="940.00" y="262" width="5.70" height="46" fill="#e66340"/>
<rect x="945.00" y="262" width="5.70" height="46" fill="#e66340"/>
<rect x="950.00" y="262" width="5.70" height="46" fill="#e66241"/>
<rect x="955.00" y="262" width="5.70" height="46" fill="#e56141"/>
<rect x="960.00" y="262" width="5.70" height="46" fill="#e56041"/>
<rect x="965.00" y="262" width="5.70" height="46" fill="#e55f42"/>
<rect x="970.00" y="262" width="5.70" height="46" fill="#e55e42"/>
<rect x="975.00" y="262" width="5.70" height="46" fill="#e55e42"/>
<rect x="980.00" y="262" width="5.70" height="46" fill="#e55d43"/>
<rect x="985.00" y="262" width="5.70" height="46" fill="#e55c43"/>
<rect x="990.00" y="262" width="5.70" height="46" fill="#e45b43"/>
<rect x="995.00" y="262" width="5.70" height="46" fill="#e45a44"/>
<rect x="1000.00" y="262" width="5.70" height="46" fill="#e45944"/>
<rect x="1005.00" y="262" width="5.70" height="46" fill="#e45944"/>
<rect x="1010.00" y="262" width="5.70" height="46" fill="#e45845"/>
<rect x="1015.00" y="262" width="5.70" height="46" fill="#e45745"/>
<rect x="1020.00" y="262" width="5.70" height="46" fill="#e45645"/>
<rect x="1025.00" y="262" width="5.70" height="46" fill="#e45546"/>
<rect x="1030.00" y="262" width="5.70" height="46" fill="#e35446"/>
<rect x="1035.00" y="262" width="5.70" height="46" fill="#e35346"/>
<rect x="1040.00" y="262" width="5.70" height="46" fill="#e35347"/>
<rect x="1045.00" y="262" width="5.70" height="46" fill="#e35247"/>
<rect x="1050.00" y="262" width="5.70" height="46" fill="#e35148"/>
<rect x="1055.00" y="262" width="5.70" height="46" fill="#e35048"/>
<rect x="1060.00" y="262" width="5.70" height="46" fill="#e34f48"/>
<rect x="1065.00" y="262" width="5.70" height="46" fill="#e34e49"/>
<rect x="1070.00" y="262" width="5.70" height="46" fill="#e24e49"/>
<rect x="1075.00" y="262" width="5.70" height="46" fill="#e24d49"/>
<rect x="1080.00" y="262" width="5.70" height="46" fill="#e24c4a"/>
<rect x="1085.00" y="262" width="5.70" height="46" fill="#e24b4a"/>
<line x1="175.0" y1="140" x2="175.0" y2="262" stroke="#e2e6ea" stroke-width="1.5"/>
<circle cx="175.0" cy="285" r="6" fill="#ffffff" stroke="#419e68" stroke-width="3"/>
<rect x="65.4" y="104" width="219.3" height="36" rx="18" fill="#ffffff" stroke="#419e68" stroke-width="2"/>
<circle cx="86.4" cy="122" r="5" fill="#419e68"/>
<text x="101.4" y="127" font-size="14" font-weight="600" fill="#16212b">Summarize documents</text>
<line x1="300.0" y1="194" x2="300.0" y2="262" stroke="#e2e6ea" stroke-width="1.5"/>
<circle cx="300.0" cy="285" r="6" fill="#ffffff" stroke="#759e54" stroke-width="3"/>
<rect x="216.4" y="158" width="167.1" height="36" rx="18" fill="#ffffff" stroke="#759e54" stroke-width="2"/>
<circle cx="237.4" cy="176" r="5" fill="#759e54"/>
<text x="252.4" y="181" font-size="14" font-weight="600" fill="#16212b">Extract facts</text>
<line x1="430.0" y1="140" x2="430.0" y2="262" stroke="#e2e6ea" stroke-width="1.5"/>
<circle cx="430.0" cy="285" r="6" fill="#ffffff" stroke="#ac9f40" stroke-width="3"/>
<rect x="346.4" y="104" width="167.1" height="36" rx="18" fill="#ffffff" stroke="#ac9f40" stroke-width="2"/>
<circle cx="367.4" cy="122" r="5" fill="#ac9f40"/>
<text x="382.4" y="127" font-size="14" font-weight="600" fill="#16212b">Organize data</text>
<line x1="545.0" y1="194" x2="545.0" y2="262" stroke="#e2e6ea" stroke-width="1.5"/>
<circle cx="545.0" cy="285" r="6" fill="#ffffff" stroke="#dc9f2e" stroke-width="3"/>
<rect x="444.1" y="158" width="201.9" height="36" rx="18" fill="#ffffff" stroke="#dc9f2e" stroke-width="2"/>
<circle cx="465.1" cy="176" r="5" fill="#dc9f2e"/>
<text x="480.1" y="181" font-size="14" font-weight="600" fill="#16212b">Compare documents</text>
<line x1="705.0" y1="140" x2="705.0" y2="262" stroke="#e2e6ea" stroke-width="1.5"/>
<circle cx="705.0" cy="285" r="6" fill="#ffffff" stroke="#ec8c2f" stroke-width="3"/>
<rect x="551.9" y="104" width="306.3" height="36" rx="18" fill="#ffffff" stroke="#ec8c2f" stroke-width="2"/>
<circle cx="572.9" cy="122" r="5" fill="#ec8c2f"/>
<text x="587.9" y="127" font-size="14" font-weight="600" fill="#16212b">Draft standard correspondence</text>
<line x1="915.0" y1="194" x2="915.0" y2="262" stroke="#e2e6ea" stroke-width="1.5"/>
<circle cx="915.0" cy="285" r="6" fill="#ffffff" stroke="#e7683e" stroke-width="3"/>
<rect x="796.6" y="158" width="236.7" height="36" rx="18" fill="#ffffff" stroke="#e7683e" stroke-width="2"/>
<circle cx="817.6" cy="176" r="5" fill="#e7683e"/>
<text x="832.6" y="181" font-size="14" font-weight="600" fill="#16212b">Negotiate settlements</text>
<line x1="1033.0" y1="140" x2="1033.0" y2="262" stroke="#e2e6ea" stroke-width="1.5"/>
<circle cx="1033.0" cy="285" r="6" fill="#ffffff" stroke="#e35546" stroke-width="3"/>
<rect x="905.9" y="104" width="254.1" height="36" rx="18" fill="#ffffff" stroke="#e35546" stroke-width="2"/>
<circle cx="926.9" cy="122" r="5" fill="#e35546"/>
<text x="941.9" y="127" font-size="14" font-weight="600" fill="#16212b">Exercise legal judgment</text>
<text x="250" y="342" font-size="14" font-weight="800" fill="#1D9E75" text-anchor="middle" letter-spacing="1">HIGH AI POTENTIAL</text>
<text x="590" y="342" font-size="14" font-weight="800" fill="#b87611" text-anchor="middle" letter-spacing="1">MODERATE</text>
<text x="940" y="342" font-size="14" font-weight="800" fill="#c33b3a" text-anchor="middle" letter-spacing="1">LOW AI POTENTIAL</text>
<text x="90" y="368" font-size="13" font-style="italic" fill="#5a6672">Structured &amp; repeatable work</text>
<text x="1090" y="368" font-size="13" font-style="italic" fill="#5a6672" text-anchor="end">Judgment, nuance &amp; relationships</text>
<text x="590" y="466" font-size="14.5" font-weight="600" fill="#1D9E75" text-anchor="middle">Start where friction is high and the work is structured &#8212; the left of the spectrum.</text>
</svg>